<?xml version="1.0" encoding="utf-8"?>
<!-- Generator: Adobe Illustrator 22.1.0, SVG Export Plug-In . SVG Version: 6.00 Build 0)  -->
<svg version="1.1" id="Layer_1" xmlns="http://www.w3.org/2000/svg" xmlns:xlink="http://www.w3.org/1999/xlink" x="0px" y="0px"
	 viewBox="0 0 595.3 576" style="enable-background:new 0 0 595.3 576;" xml:space="preserve">
<style type="text/css">
	.st0{fill:none;stroke:#000000;stroke-width:4;stroke-miterlimit:10;}
	.st1{fill:none;stroke:#000000;stroke-width:2;stroke-miterlimit:10;}
	.st2{fill:none;stroke:#000000;stroke-miterlimit:10;}
	.st3{fill:none;stroke:#000000;stroke-width:0.75;stroke-miterlimit:10;}
	.st4{font-family:'MyriadPro-Regular';}
	.st5{font-size:18px;}
	.st6{fill:none;}
	.st7{fill:none;stroke:#000000;stroke-linecap:round;stroke-miterlimit:10;}
	.st8{font-size:16px;}
	.st9{font-size:19px;}
	.st10{font-size:11px;}
	.st11{font-size:10px;}
</style>
<line class="st0" x1="387" y1="108" x2="463.5" y2="108"/>
<line class="st0" x1="103.5" y1="108" x2="337.5" y2="108"/>
<path class="st0" d="M460,468c1.2,0,2.3,0,3.5,0"/>
<path class="st0" d="M285.4,468c24.4,0,48.8,0,73.1,0"/>
<path class="st0" d="M103.5,108C102,228,104,348,104,468c13,0,27,0,39.5,0"/>
<polyline class="st0" points="463.5,468 495,468 490.5,468 499.5,468 499.5,108 463.5,108 "/>
<line class="st0" x1="175.5" y1="216" x2="108" y2="216"/>
<line class="st0" x1="391.5" y1="265.5" x2="499.5" y2="265.5"/>
<path class="st0" d="M499.5,324c-5.6,0-11.1,0-16.7,0"/>
<path class="st0" d="M405,108c0,11,0,23,0,33.9"/>
<line class="st0" x1="108" y1="216" x2="103.5" y2="216"/>
<line class="st1" x1="405" y1="135" x2="499.5" y2="135"/>
<polyline class="st2" points="148.5,108 148.5,135 135,135 "/>
<polygon class="st2" points="153,112.4 180,112.5 180,112.5 180,135 180,135.2 153,135 153,112.4 "/>
<line class="st2" x1="180" y1="130.5" x2="153" y2="130.5"/>
<line class="st2" x1="175.5" y1="135" x2="175.5" y2="139.5"/>
<line class="st2" x1="171" y1="135" x2="171" y2="139.5"/>
<line class="st2" x1="175.5" y1="139.5" x2="171" y2="139.5"/>
<rect x="153" y="189" class="st2" width="22.5" height="22.5"/>
<line class="st2" x1="153" y1="207" x2="175.5" y2="207"/>
<g>
	<g>
		<path d="M159.5,197.4c3.2,0,3.2-5,0-5C156.3,192.4,156.3,197.4,159.5,197.4L159.5,197.4z"/>
	</g>
</g>
<g>
	<g>
		<path d="M169,197.4c3.2,0,3.2-5,0-5C165.8,192.4,165.8,197.4,169,197.4L169,197.4z"/>
	</g>
</g>
<g>
	<g>
		<path d="M169,204.5c3.2,0,3.2-5,0-5C165.8,199.5,165.8,204.5,169,204.5L169,204.5z"/>
	</g>
</g>
<g>
	<g>
		<path d="M159.7,204.6c3.2,0,3.2-5,0-5C156.4,199.6,156.4,204.6,159.7,204.6L159.7,204.6z"/>
	</g>
</g>
<polyline class="st2" points="135,189 148.5,189 148.5,216 "/>
<line class="st3" x1="175.5" y1="216" x2="319.5" y2="216"/>
<text transform="matrix(1 0 0 1 112.5 355.5)" class="st4 st5">17ft 6in</text>
<text transform="matrix(1 0 0 1 198 459)" class="st4 st5">12ft</text>
<text transform="matrix(1 0 0 1 396 459)" class="st4 st5">10ft</text>
<text transform="matrix(1 0 0 1 414 301.5)" class="st4 st5">CLOSET</text>
<line class="st6" x1="405" y1="229.5" x2="499.5" y2="229.5"/>
<path class="st2" d="M478.5,261H426c-6.6,0-12-5.4-12-12v-3c0-6.6,5.4-12,12-12h52.5c6.6,0,12,5.4,12,12v3
	C490.5,255.6,485.1,261,478.5,261z"/>
<line class="st2" x1="405" y1="229.5" x2="499.5" y2="229.5"/>
<line class="st1" x1="463.5" y1="135" x2="463.5" y2="180"/>
<line class="st1" x1="499.5" y1="180" x2="463.5" y2="180"/>
<path class="st2" d="M483,175.5h-3c-6.6,0-12-5.4-12-12v-12c0-6.6,5.4-12,12-12h3c6.6,0,12,5.4,12,12v12
	C495,170.1,489.6,175.5,483,175.5z"/>
<g>
	<g>
		<path d="M486,159.8c3.2,0,3.2-5,0-5C482.8,154.8,482.8,159.8,486,159.8L486,159.8z"/>
	</g>
</g>
<path class="st0" d="M391.5,265.5c-4.1,0-8.2,0-12.3,0"/>
<text transform="matrix(1 0 0 1 279 99)" class="st4 st5">22ft 6in</text>
<path class="st7" d="M492.8,192.3l0,16c0,4.3-3.5,7.8-7.8,7.8h0c-4.3,0-7.8-3.5-7.8-7.8l0-16c0-4.3,3.5-7.8,7.8-7.8l0,0
	C489.3,184.5,492.8,188,492.8,192.3z"/>
<line class="st7" x1="477.2" y1="208.1" x2="473.3" y2="208.1"/>
<line class="st7" x1="477.2" y1="192.4" x2="473.3" y2="192.4"/>
<ellipse class="st7" cx="463.6" cy="200.2" rx="13.6" ry="11.8"/>
<rect x="99" y="153" transform="matrix(4.367204e-03 -1 1 4.367204e-03 -41.0291 282.7914)" class="st7" width="45" height="18"/>
<line class="st7" x1="112.5" y1="162" x2="130.5" y2="162"/>
<line class="st7" x1="107.9" y1="188.9" x2="108.1" y2="134.9"/>
<line class="st7" x1="108.1" y1="134.9" x2="135.1" y2="135.1"/>
<line class="st7" x1="107.9" y1="188.9" x2="134.9" y2="189.1"/>
<g>
	<g>
		<path d="M121.4,175.9c3.2,0,3.2-5,0-5C118.2,170.9,118.2,175.9,121.4,175.9L121.4,175.9z"/>
	</g>
</g>
<g>
	<g>
		<path d="M121.5,153.1c3.2,0,3.2-5,0-5C118.3,148.1,118.3,153.1,121.5,153.1L121.5,153.1z"/>
	</g>
</g>
<g>
	<g>
		<path d="M104,111c3.2,0,3.2-5,0-5C100.8,106,100.8,111,104,111L104,111z"/>
	</g>
</g>
<text transform="matrix(1 0 0 1 216 126)" class="st4 st8">13ft</text>
<text transform="matrix(1 0 0 1 463.5 396)" class="st4 st5">12ft</text>
<text transform="matrix(1 0 0 1 270 157.5)" class="st4 st8">7ft 6in</text>
<text transform="matrix(1 0 0 1 189 175.5)" class="st4 st5">KITCHEN</text>
<text transform="matrix(1 0 0 1 162 315)" class="st4 st9">LIVING ROOM</text>
<text transform="matrix(1 0 0 1 360 387)" class="st4 st5">BEDROOM</text>
<text transform="matrix(1 0 0 1 405 157.5)" class="st4 st10">BATHROOM</text>
<line class="st0" x1="319.5" y1="216" x2="319.5" y2="193.5"/>
<line class="st0" x1="319.5" y1="108" x2="319.5" y2="162"/>
<polyline class="st0" points="364.5,301.5 333,265.5 319.5,265.5 319.5,468 "/>
<path class="st0" d="M436.5,166.5l-31.5,18v-1.2c0,27.4,0,54.8,0,82.2"/>
<polyline class="st0" points="409.5,324 391.5,324 391.5,265.5 "/>
<line class="st2" x1="486" y1="324" x2="405" y2="324"/>
<line class="st2" x1="139.5" y1="468" x2="288" y2="468"/>
<line class="st2" x1="355.5" y1="468" x2="463.5" y2="468"/>
<text transform="matrix(1 0 0 1 418.5 126)" class="st4 st11">CLOSET</text>
<line class="st7" x1="135" y1="135" x2="135" y2="189"/>
<g>
	<g>
		<path d="M479.8,249.8c3.2,0,3.2-5,0-5C476.6,244.8,476.6,249.8,479.8,249.8L479.8,249.8z"/>
	</g>
</g>
<line class="st0" x1="387" y1="108" x2="351" y2="148.5"/>
</svg>
