<?xml version="1.0" encoding="utf-8"?>
<!-- Generator: Adobe Illustrator 22.1.0, SVG Export Plug-In . SVG Version: 6.00 Build 0)  -->
<svg version="1.1" id="Layer_1" xmlns="http://www.w3.org/2000/svg" xmlns:xlink="http://www.w3.org/1999/xlink" x="0px" y="0px"
	 viewBox="0 0 595.3 576" style="enable-background:new 0 0 595.3 576;" xml:space="preserve">
<style type="text/css">
	.st0{fill:none;stroke:#000000;stroke-width:4;stroke-miterlimit:10;}
	.st1{fill:none;stroke:#000000;stroke-miterlimit:10;}
	.st2{fill:none;stroke:#000000;stroke-linecap:round;stroke-miterlimit:10;}
	.st3{font-family:'MyriadPro-Regular';}
	.st4{font-size:25px;}
	.st5{font-size:13px;}
	.st6{font-size:14px;}
	.st7{font-size:15px;}
</style>
<path class="st0" d="M214.8,481.8c-19.8,0.2-39.8,0.2-59.8,0V85.5c53.2,0.5,105.2,0.5,158.3,0.1"/>
<line class="st0" x1="369.7" y1="108" x2="369.7" y2="85.5"/>
<path class="st0" d="M369.7,108"/>
<polyline class="st0" points="419.2,217.6 369.7,217.6 369.7,193.5 "/>
<path class="st0" d="M303.5,119.3c-0.3,32.7-0.3,65.7,0.1,98.3"/>
<line class="st0" x1="303.6" y1="176.3" x2="155" y2="176.3"/>
<line class="st1" x1="204.6" y1="85.5" x2="204.6" y2="176.3"/>
<line class="st1" x1="303.6" y1="143.3" x2="245.8" y2="143.3"/>
<line class="st1" x1="245.8" y1="143.3" x2="245.8" y2="176.3"/>
<line class="st1" x1="303.6" y1="209.4" x2="155" y2="209.4"/>
<rect x="204.6" y="184.6" class="st2" width="41.3" height="16.5"/>
<line class="st2" x1="225.2" y1="184.6" x2="225.2" y2="201.1"/>
<line class="st2" x1="200.4" y1="180.5" x2="250" y2="180.5"/>
<line class="st2" x1="200.4" y1="205.2" x2="250" y2="205.2"/>
<line class="st2" x1="250" y1="180.5" x2="250" y2="205.2"/>
<line class="st2" x1="200.4" y1="180.5" x2="200.4" y2="205.2"/>
<path class="st2" d="M233.5,168.1h-16.5c-4.5,0-8.3-3.7-8.3-8.3v0c0-4.5,3.7-8.3,8.3-8.3h16.5c4.5,0,8.3,3.7,8.3,8.3v0
	C241.7,164.4,238,168.1,233.5,168.1z"/>
<path class="st2" d="M135,89.6"/>
<g>
	<g>
		<path d="M274.6,162.3c3.2,0,3.2-5,0-5C271.4,157.3,271.4,162.3,274.6,162.3L274.6,162.3z"/>
	</g>
</g>
<g>
	<g>
		<path d="M214.7,195.3c3.2,0,3.2-5,0-5C211.5,190.3,211.5,195.3,214.7,195.3L214.7,195.3z"/>
	</g>
</g>
<g>
	<g>
		<path d="M235.6,195.3c3.2,0,3.2-5,0-5C232.4,190.3,232.4,195.3,235.6,195.3L235.6,195.3z"/>
	</g>
</g>
<g>
	<g>
		<path d="M179,157.8c3.2,0,3.2-5,0-5C175.8,152.8,175.8,157.8,179,157.8L179,157.8z"/>
	</g>
</g>
<line class="st2" x1="216.9" y1="151.6" x2="216.9" y2="147.4"/>
<line class="st2" x1="233.5" y1="151.6" x2="233.5" y2="147.4"/>
<ellipse class="st2" cx="225.2" cy="137.1" rx="12.4" ry="14.5"/>
<path class="st2" d="M283.4,172.2h-17.3c-6.6,0-12-5.4-12-12v-0.8c0-6.6,5.4-12,12-12h17.3c6.6,0,12,5.4,12,12v0.8
	C295.4,166.8,290,172.2,283.4,172.2z"/>
<text transform="matrix(1 0 0 1 163.2681 337.3457)" class="st3 st4">17ft 6in</text>
<text transform="matrix(1 0 0 1 266.4834 469.4609)" class="st3 st4">14ft</text>
<text transform="matrix(1 0 0 1 427.5 315)" class="st3 st4">25ft 8in</text>
<text transform="matrix(1 0 0 1 391.5 117)"><tspan x="0" y="0" class="st3 st5">C</tspan><tspan x="0" y="15.6" class="st3 st5">L</tspan><tspan x="0" y="31.2" class="st3 st5">O</tspan><tspan x="0" y="46.8" class="st3 st5">S</tspan><tspan x="0" y="62.4" class="st3 st5">E</tspan><tspan x="0" y="78" class="st3 st5">T</tspan></text>
<line class="st1" x1="163.3" y1="221.7" x2="192.2" y2="221.7"/>
<line class="st1" x1="163.3" y1="250.6" x2="192.2" y2="250.6"/>
<line class="st1" x1="163.3" y1="250.6" x2="163.3" y2="221.7"/>
<line class="st1" x1="192.2" y1="250.6" x2="192.2" y2="221.7"/>
<path class="st1" d="M189,222.6c0,9.2,0,18.5,0,27.7"/>
<line class="st1" x1="192.2" y1="225.9" x2="196.3" y2="225.9"/>
<line class="st1" x1="192.2" y1="230" x2="196.3" y2="230"/>
<line class="st1" x1="196.3" y1="225.9" x2="196.3" y2="230"/>
<path class="st0" d="M328.2,121.5l31.5-36l1.2,0.3c19.4,0.2,38.9,0.1,58.3-0.3v396.3c-19.2,0.2-38.2,0.2-57.1,0"/>
<path class="st0" d="M283.2,112.5c6.8-6.8,13.7-13.7,20.5-20.5l-0.1-0.6c0-2,0-3.9,0-5.9"/>
<line class="st1" x1="207" y1="481.5" x2="364.5" y2="481.5"/>
<text transform="matrix(1 0 0 1 211.5 108)" class="st3 st6">BATHROOM</text>
<text transform="matrix(1 0 0 1 220.5 238.5)" class="st3 st7">KITCHEN</text>
<polyline class="st1" points="301.5,207 301.5,256.5 153,256.5 "/>
<line class="st1" x1="369" y1="99" x2="369" y2="198"/>
<path class="st2" d="M186,171h-12c-6.6,0-12-5.4-12-12v-52.5c0-6.6,5.4-12,12-12h12c6.6,0,12,5.4,12,12V159
	C198,165.6,192.6,171,186,171z"/>
</svg>
