<?xml version="1.0" encoding="utf-8"?>
<!-- Generator: Adobe Illustrator 22.1.0, SVG Export Plug-In . SVG Version: 6.00 Build 0)  -->
<svg version="1.1" id="Layer_1" xmlns="http://www.w3.org/2000/svg" xmlns:xlink="http://www.w3.org/1999/xlink" x="0px" y="0px"
	 viewBox="0 0 595.3 576" style="enable-background:new 0 0 595.3 576;" xml:space="preserve">
<style type="text/css">
	.st0{fill:none;stroke:#000000;stroke-width:4;stroke-miterlimit:10;}
	.st1{fill:none;}
	.st2{font-family:'MyriadPro-Regular';}
	.st3{font-size:15px;}
	.st4{font-size:18px;}
	.st5{font-size:12px;}
	.st6{fill:none;stroke:#000000;stroke-linecap:round;stroke-miterlimit:10;}
	.st7{fill:none;stroke:#000000;stroke-miterlimit:10;}
	.st8{font-size:10px;}
</style>
<polyline class="st0" points="279,108 49.5,108 49.5,468 81,468 "/>
<path class="st0" d="M279,108"/>
<path class="st1" d="M522,468"/>
<path class="st0" d="M445.5,468"/>
<line class="st0" x1="441" y1="468" x2="441" y2="468"/>
<line class="st0" x1="369" y1="468" x2="436.5" y2="468"/>
<path class="st0" d="M378,468"/>
<path class="st0" d="M283.5,468"/>
<line class="st0" x1="202.5" y1="468" x2="265.5" y2="468"/>
<line class="st0" x1="198" y1="468" x2="202.5" y2="468"/>
<path class="st0" d="M198,468"/>
<line class="st0" x1="81" y1="468" x2="94.5" y2="468"/>
<line class="st0" x1="265.5" y1="198" x2="265.5" y2="211.5"/>
<path class="st0" d="M265.5,192.5c0,1.8,0,3.6,0,5.5"/>
<path class="st0" d="M265.5,108c0.5,17.7,0.5,36.8,0,54"/>
<line class="st0" x1="49.5" y1="211.5" x2="121.5" y2="211.5"/>
<line class="st0" x1="337.5" y1="126" x2="337.5" y2="108"/>
<path class="st0" d="M337.5,126"/>
<path class="st0" d="M502.7,211.7C448,212,393,212,337.5,211.6V189"/>
<path class="st0" d="M315,252c-25.5,0-51.1,0-76.5,0v216"/>
<path class="st0" d="M351.3,252c-12,0-24.1,0-36.3,0"/>
<line class="st0" x1="481.5" y1="108" x2="481.5" y2="211.5"/>
<polyline class="st0" points="324,288 337.5,288 337.5,252 "/>
<line class="st0" x1="319.5" y1="288" x2="324" y2="288"/>
<line class="st0" x1="315" y1="288" x2="315" y2="288"/>
<line class="st0" x1="283.5" y1="288" x2="283.5" y2="288"/>
<path class="st0" d="M283.5,288"/>
<line class="st0" x1="261" y1="288" x2="261" y2="288"/>
<line class="st0" x1="238.5" y1="288" x2="261" y2="288"/>
<text transform="matrix(1 0 0 1 265.5 274.5)" class="st2 st3">CLOSET</text>
<line class="st0" x1="369" y1="108" x2="369" y2="211.5"/>
<text transform="matrix(1 0 0 1 54 360)" class="st2 st4">17ft 6in</text>
<text transform="matrix(1 0 0 1 121.5 459)" class="st2 st4">12ft 6in</text>
<text transform="matrix(1 0 0 1 297 459)" class="st2 st4">9ft 6in</text>
<text transform="matrix(1 0 0 1 454.5 459)" class="st2 st4">9ft 5in</text>
<text transform="matrix(1 0 0 1 243 400.5)" class="st2 st4">11ft 6in</text>
<text transform="matrix(1 0 0 1 490.5 301.5)" class="st2 st4">17ft 6in</text>
<text transform="matrix(1 0 0 1 279 99)" class="st2 st4">32ft 4in</text>
<text transform="matrix(1 0 0 1 175.5 126)" class="st2 st4">15ft</text>
<text transform="matrix(1 0 0 1 238.5 153)" class="st2 st4">8ft</text>
<text transform="matrix(1 0 0 1 418.5 207)" class="st2 st5">8ft</text>
<text transform="matrix(1 0 0 1 373.5 153)" class="st2 st5">7ft</text>
<text transform="matrix(1 0 0 1 283.5 360)" class="st2 st4">BEDROOM 2</text>
<text transform="matrix(1 0 0 1 436.5 360)" class="st2 st4">BEDROOM 1</text>
<text transform="matrix(1 0 0 1 490.5 153)"><tspan x="0" y="0" class="st2 st3">WALK-IN</tspan><tspan x="0" y="18" class="st2 st3">CLOSET</tspan></text>
<path class="st6" d="M476,150.4l0,14.2c0,3.8-3.1,6.9-6.9,6.9h0c-3.8,0-6.9-3.1-6.9-6.9l0-14.2c0-3.8,3.1-6.9,6.9-6.9h0
	C472.9,143.4,476,146.6,476,150.4z"/>
<line class="st6" x1="462.1" y1="164.5" x2="458.7" y2="164.5"/>
<line class="st6" x1="462.1" y1="150.5" x2="458.7" y2="150.5"/>
<ellipse class="st6" cx="450" cy="157.5" rx="12.1" ry="10.5"/>
<line class="st6" x1="481.5" y1="139.5" x2="369" y2="139.5"/>
<path class="st6" d="M461.2,135h-72c-6.2,0-11.2-5.1-11.2-11.2v0c0-6.2,5.1-11.2,11.2-11.2h72c6.2,0,11.2,5.1,11.2,11.2v0
	C472.5,129.9,467.4,135,461.2,135z"/>
<line class="st6" x1="481.5" y1="175.5" x2="445.5" y2="175.5"/>
<line class="st6" x1="445.5" y1="211.5" x2="445.5" y2="175.5"/>
<path class="st6" d="M461.2,207L461.2,207c-6.2,0-11.2-5.1-11.2-11.2v-4.5c0-6.2,5.1-11.2,11.2-11.2l0,0c6.2,0,11.2,5.1,11.2,11.2
	v4.5C472.5,201.9,467.4,207,461.2,207z"/>
<g>
	<g>
		<path d="M464.5,196.5c3.2,0,3.2-5,0-5C461.2,191.5,461.2,196.5,464.5,196.5L464.5,196.5z"/>
	</g>
</g>
<line class="st6" x1="121.5" y1="211.5" x2="265.5" y2="211.5"/>
<text transform="matrix(1 0 0 1 99 319.5)" class="st2 st4">LIVING ROOM</text>
<polyline class="st7" points="81,139.5 94.5,139.5 94.5,108 "/>
<polyline class="st7" points="81,184.5 94.5,184.5 94.5,211.5 "/>
<polyline class="st7" points="99,112.4 99,139.5 126,139.5 126,139.5 126,112.5 99,112.5 "/>
<line class="st7" x1="126" y1="135" x2="99" y2="135"/>
<polyline class="st7" points="121.5,139.5 121.5,144 121.5,144 117,144 117,144 117,139.5 "/>
<rect x="99" y="184.5" class="st7" width="22.5" height="22.5"/>
<line class="st7" x1="99" y1="202.5" x2="121.5" y2="202.5"/>
<g>
	<g>
		<path d="M105.5,192.9c3.2,0,3.2-5,0-5C102.3,187.9,102.3,192.9,105.5,192.9L105.5,192.9z"/>
	</g>
</g>
<g>
	<g>
		<path d="M115,192.9c3.2,0,3.2-5,0-5C111.8,187.9,111.8,192.9,115,192.9L115,192.9z"/>
	</g>
</g>
<g>
	<g>
		<path d="M115,200c3.2,0,3.2-5,0-5C111.8,195,111.8,200,115,200L115,200z"/>
	</g>
</g>
<g>
	<g>
		<path d="M105.7,200.1c3.2,0,3.2-5,0-5C102.4,195.1,102.4,200.1,105.7,200.1L105.7,200.1z"/>
	</g>
</g>
<rect x="45.1" y="153.1" transform="matrix(4.367204e-03 -1 1 4.367204e-03 -94.7347 228.9681)" class="st6" width="45" height="18"/>
<line class="st6" x1="58.6" y1="162" x2="76.6" y2="162.1"/>
<line class="st6" x1="54" y1="189" x2="54.2" y2="135"/>
<line class="st6" x1="54.2" y1="135" x2="81.2" y2="135.1"/>
<line class="st6" x1="54" y1="189" x2="81" y2="189.1"/>
<g>
	<g>
		<path d="M67.5,176c3.2,0,3.2-5,0-5C64.3,171,64.3,176,67.5,176L67.5,176z"/>
	</g>
</g>
<g>
	<g>
		<path d="M67.6,153.2c3.2,0,3.2-5,0-5C64.4,148.2,64.4,153.2,67.6,153.2L67.6,153.2z"/>
	</g>
</g>
<text transform="matrix(1 0 0 1 148.5 175.5)" class="st2 st4">KITCHEN</text>
<text transform="matrix(1 0 0 1 378 180)" class="st2 st5">BATHROOM</text>
<path class="st0" d="M360,283.5l27-31.5h0.8c5.7,0,11.4,0,17.2,0v216"/>
<polyline class="st0" points="432,243 405,220.5 405,211.5 "/>
<line class="st0" x1="499.5" y1="211.5" x2="526.5" y2="184.5"/>
<line class="st0" x1="553.5" y1="211.5" x2="544.5" y2="211.5"/>
<line class="st7" x1="81" y1="135" x2="81" y2="189"/>
<line class="st7" x1="90" y1="468" x2="202.5" y2="468"/>
<line class="st7" x1="261" y1="468" x2="387" y2="468"/>
<line class="st7" x1="526.5" y1="468" x2="427.5" y2="468"/>
<line class="st7" x1="256.5" y1="288" x2="319.5" y2="288"/>
<g>
	<g>
		<path d="M461.2,126.1c3.2,0,3.2-5,0-5C458,121.1,457.9,126.1,461.2,126.1L461.2,126.1z"/>
	</g>
</g>
<polyline class="st0" points="288,144 324,108 553.5,108 553.5,468 522,468 "/>
<text transform="matrix(1 0 0 1 351 130.5)"><tspan x="0" y="0" class="st2 st8">C</tspan><tspan x="0" y="12" class="st2 st8">L</tspan><tspan x="0" y="24" class="st2 st8">O</tspan><tspan x="0" y="36" class="st2 st8">S</tspan><tspan x="0" y="48" class="st2 st8">E</tspan><tspan x="0" y="60" class="st2 st8">T</tspan></text>
<line class="st7" x1="337.5" y1="121.5" x2="337.5" y2="198"/>
</svg>
